<svg width="31" height="22" viewBox="0 0 31 22" fill="none" xmlns="http://www.w3.org/2000/svg">
<path d="M24.8291 13.1667C24.5132 13.1667 24.2497 13.0602 24.0386 12.8473C23.8275 12.6343 23.7219 12.3704 23.7219 12.0556V8.94448H20.6108C20.296 8.94448 20.0321 8.83763 19.8191 8.62392C19.6062 8.4102 19.4997 8.14539 19.4997 7.82948C19.4997 7.51357 19.6062 7.25006 19.8191 7.03895C20.0321 6.82784 20.296 6.72228 20.6108 6.72228H23.7219V3.61115C23.7219 3.29635 23.8288 3.03246 24.0425 2.81948C24.2562 2.60653 24.521 2.50005 24.8369 2.50005C25.1528 2.50005 25.4163 2.60653 25.6274 2.81948C25.8386 3.03246 25.9441 3.29635 25.9441 3.61115V6.72228H29.0552C29.37 6.72228 29.6339 6.82914 29.8469 7.04285C30.0599 7.25656 30.1663 7.52137 30.1663 7.83728C30.1663 8.15319 30.0599 8.41671 29.8469 8.62782C29.6339 8.83893 29.37 8.94448 29.0552 8.94448H25.9441V12.0556C25.9441 12.3704 25.8373 12.6343 25.6235 12.8473C25.4098 13.0602 25.145 13.1667 24.8291 13.1667ZM11.4997 10.4778C10.033 10.4778 8.81449 9.99264 7.84411 9.02228C6.87375 8.0519 6.38858 6.83338 6.38858 5.36672C6.38858 3.90005 6.87375 2.68154 7.84411 1.71118C8.81449 0.740804 10.033 0.255615 11.4997 0.255615C12.9663 0.255615 14.1849 0.740804 15.1552 1.71118C16.1256 2.68154 16.6108 3.90005 16.6108 5.36672C16.6108 6.83338 16.1256 8.0519 15.1552 9.02228C14.1849 9.99264 12.9663 10.4778 11.4997 10.4778ZM1.94411 21.1667C1.62931 21.1667 1.36542 21.0602 1.15244 20.8473C0.939486 20.6343 0.833008 20.3704 0.833008 20.0556V17.8334C0.833008 17.063 1.03115 16.3612 1.42744 15.7279C1.82375 15.0945 2.36635 14.6186 3.05524 14.3C4.62562 13.5815 6.07998 13.0649 7.41831 12.75C8.75666 12.4352 10.1159 12.2779 11.4961 12.2779C12.8763 12.2779 14.2367 12.4352 15.5774 12.75C16.9182 13.0649 18.3663 13.5815 19.9219 14.3C20.6108 14.6334 21.1571 15.113 21.5608 15.7389C21.9645 16.3649 22.1663 17.063 22.1663 17.8334V20.0556C22.1663 20.3704 22.0599 20.6343 21.8469 20.8473C21.6339 21.0602 21.37 21.1667 21.0552 21.1667H1.94411ZM3.05521 18.9445H19.9441V17.8334C19.9441 17.5149 19.8645 17.2149 19.7052 16.9334C19.546 16.6519 19.3071 16.4408 18.9886 16.3C17.5515 15.5963 16.2626 15.1204 15.1219 14.8723C13.9812 14.6241 12.7737 14.5 11.4997 14.5C10.2256 14.5 9.0182 14.6278 7.87744 14.8834C6.73671 15.1389 5.44042 15.6112 3.98857 16.3C3.69966 16.4408 3.47187 16.6519 3.30521 16.9334C3.13854 17.2149 3.05521 17.5149 3.05521 17.8334V18.9445ZM11.4997 8.25562C12.3219 8.25562 13.0089 7.97969 13.5608 7.42785C14.1126 6.87598 14.3886 6.18894 14.3886 5.36672C14.3886 4.54449 14.1126 3.85746 13.5608 3.30562C13.0089 2.75375 12.3219 2.47782 11.4997 2.47782C10.6775 2.47782 9.99042 2.75375 9.43857 3.30562C8.88671 3.85746 8.61077 4.54449 8.61077 5.36672C8.61077 6.18894 8.88671 6.87598 9.43857 7.42785C9.99042 7.97969 10.6775 8.25562 11.4997 8.25562Z" fill="white"/>
</svg>
